<svg width="182" height="166" viewBox="0 0 182 166" fill="none" xmlns="http://www.w3.org/2000/svg">
<path d="M40.0142 17.3791C77.8918 -13.8665 144.55 -1.03242 169.87 40.3097C195.374 81.9085 161.735 130.57 118.77 147.922C76.0342 164.414 30.6715 164.071 9.97969 136.712C-10.772 109.989 1.60127 48.8042 40.0142 17.3791Z" fill="#FFFDF7"/>
<path d="M179.592 139.398C183.634 146.396 178.935 156.674 169.099 162.353C159.262 168.032 148.013 166.961 143.972 159.962C139.931 152.964 144.629 142.686 154.466 137.007C164.302 131.328 175.551 132.399 179.592 139.398Z" fill="#FFFDF7"/>
<path d="M138.878 123.769H33.5678C27.6213 123.769 22.8003 118.948 22.8003 113.001V55.3643C22.8003 49.4177 27.6213 44.5967 33.5678 44.5967H138.878C144.825 44.5967 149.646 49.4177 149.646 55.3643V113.003C149.646 118.949 144.826 123.769 138.878 123.769Z" fill="white"/>
<path d="M138.88 124.85H33.569C27.0347 124.85 21.72 119.536 21.72 113.003V55.3642C21.72 48.8299 27.0347 43.5152 33.569 43.5152H138.88C145.414 43.5152 150.729 48.8299 150.729 55.3642V113.003C150.729 119.536 145.413 124.85 138.88 124.85ZM33.5678 45.677C28.2262 45.677 23.8806 50.0226 23.8806 55.3642V113.003C23.8806 118.343 28.2262 122.689 33.5678 122.689H138.878C144.22 122.689 148.566 118.343 148.566 113.003V55.3642C148.566 50.0226 144.22 45.677 138.878 45.677H33.5678Z" fill="#3A2382"/>
<path d="M50.6741 51.9987H49.3531C46.0352 51.9987 43.3357 49.2992 43.3357 45.9813V37.1886C43.3357 33.8707 46.0352 31.1712 49.3531 31.1712H50.6741C53.992 31.1712 56.6915 33.8707 56.6915 37.1886V45.9813C56.6915 49.2992 53.992 51.9987 50.6741 51.9987ZM49.3531 33.333C47.2279 33.333 45.4975 35.0635 45.4975 37.1886V45.9813C45.4975 48.1065 47.2279 49.8369 49.3531 49.8369H50.6741C52.7993 49.8369 54.5297 48.1065 54.5297 45.9813V37.1886C54.5297 35.0635 52.7993 33.333 50.6741 33.333H49.3531Z" fill="#3A2382"/>
<path d="M75.4465 51.9987H74.123C70.8051 51.9987 68.1068 49.2992 68.1068 45.9813V37.1886C68.1068 33.8707 70.8051 31.1712 74.123 31.1712H75.4465C78.7643 31.1712 81.4639 33.8707 81.4639 37.1886V45.9813C81.4639 49.2992 78.7631 51.9987 75.4465 51.9987ZM74.123 33.333C71.9978 33.333 70.2686 35.0635 70.2686 37.1886V45.9813C70.2686 48.1065 71.9966 49.8369 74.123 49.8369H75.4465C77.5716 49.8369 79.3021 48.1065 79.3021 45.9813V37.1886C79.3021 35.0635 77.5716 33.333 75.4465 33.333H74.123Z" fill="#3A2382"/>
<path d="M100.216 51.9987H98.894C95.5761 51.9987 92.8766 49.2992 92.8766 45.9813V37.1886C92.8766 33.8707 95.5761 31.1712 98.894 31.1712H100.216C103.534 31.1712 106.234 33.8707 106.234 37.1886V45.9813C106.234 49.2992 103.534 51.9987 100.216 51.9987ZM98.894 33.333C96.7688 33.333 95.0384 35.0635 95.0384 37.1886V45.9813C95.0384 48.1065 96.7688 49.8369 98.894 49.8369H100.216C102.341 49.8369 104.072 48.1065 104.072 45.9813V37.1886C104.072 35.0635 102.343 33.333 100.216 33.333H98.894Z" fill="#3A2382"/>
<path d="M124.986 51.9987H123.664C120.346 51.9987 117.646 49.2992 117.646 45.9813V37.1886C117.646 33.8707 120.346 31.1712 123.664 31.1712H124.986C128.304 31.1712 131.003 33.8707 131.003 37.1886V45.9813C131.003 49.2992 128.304 51.9987 124.986 51.9987ZM123.665 33.333C121.54 33.333 119.809 35.0635 119.809 37.1886V45.9813C119.809 48.1065 121.54 49.8369 123.665 49.8369H124.987C127.112 49.8369 128.843 48.1065 128.843 45.9813V37.1886C128.843 35.0635 127.114 33.333 124.987 33.333H123.665Z" fill="#3A2382"/>
<path d="M52.2396 64.2144H32.5462V82.9913H52.2396V64.2144Z" fill="#3A2382"/>
<path d="M81.4602 64.2144H61.7668V82.9913H81.4602V64.2144Z" fill="#3A2382"/>
<path d="M110.681 64.2144H90.9874V82.9913H110.681V64.2144Z" fill="#3A2382"/>
<path d="M139.901 64.2144H120.208V82.9913H139.901V64.2144Z" fill="#3A2382"/>
<path d="M52.2396 90.1329H32.5462V108.91H52.2396V90.1329Z" fill="#3A2382"/>
<path d="M81.4602 90.1329H61.7668V108.91H81.4602V90.1329Z" fill="#3A2382"/>
<path d="M110.681 90.1329H90.9874V108.91H110.681V90.1329Z" fill="#3A2382"/>
<path d="M139.901 90.1329H120.208V108.91H139.901V90.1329Z" fill="#3A2382"/>
</svg>
