<svg width="21" height="21" viewBox="0 0 21 21" fill="none" xmlns="http://www.w3.org/2000/svg">
<path fill-rule="evenodd" clip-rule="evenodd" d="M4.6575 0.000296003C5.7745 0.015296 6.5705 0.852296 7.5775 1.9113C7.8265 2.1723 8.0955 2.4573 8.3965 2.7573C9.8555 4.2173 9.4405 5.4083 9.1055 6.3643C8.7415 7.4073 8.4265 8.3073 10.3125 10.1933C12.1985 12.0793 13.0975 11.7643 14.1395 11.3973C15.0965 11.0633 16.2845 10.6453 17.7465 12.1053C18.0435 12.4023 18.3235 12.6683 18.5835 12.9153C19.6465 13.9273 20.4865 14.7263 20.5007 15.8463C20.5115 16.8003 19.9315 17.7743 18.4995 19.2063L17.8655 18.7763L18.4025 19.2993C18.0855 19.6243 17.2425 20.4903 15.5915 20.5003H15.5615C13.0695 20.5003 9.8205 18.5163 5.9045 14.6013C1.9725 10.6703 -0.0144967 7.4113 0.000419046 4.9143C0.00950334 3.2643 0.874503 2.4193 1.1995 2.1023L1.22724 2.072L1.2945 2.0043C2.7295 0.569296 3.7155 -0.020704 4.6575 0.000296003ZM4.6385 1.5003H4.6305C4.18144 1.5003 3.49947 1.9503 2.54833 2.87419L2.35734 3.06176L2.3595 3.0613C2.3595 3.0613 2.34318 3.08002 2.31537 3.10838L2.2485 3.1753C2.0065 3.4103 1.5055 3.8993 1.50045 4.9223C1.4925 6.3533 2.4335 9.0103 6.9645 13.5403C11.4735 18.0483 14.1265 19.0003 15.5615 19.0003H15.5825C16.6055 18.9943 17.0935 18.4933 17.3285 18.2523C17.3995 18.1793 17.4575 18.1243 17.4985 18.0913C18.4955 17.0883 19.0055 16.3433 19.0005 15.8643C18.9945 15.3763 18.3875 14.8003 17.5485 14.0013C17.2815 13.7483 16.9915 13.4713 16.6855 13.1653C15.8915 12.3743 15.5005 12.5093 14.6355 12.8133C13.4405 13.2323 11.8035 13.8063 9.2525 11.2533C6.7005 8.7023 7.2725 7.0653 7.6895 5.8693C7.9915 5.0053 8.1295 4.6123 7.3365 3.8183C7.0265 3.5083 6.7475 3.2143 6.4905 2.9443C5.6965 2.1103 5.1235 1.5073 4.6385 1.5003ZM13.2466 3.5578C15.3276 3.9618 16.9346 5.5678 17.3396 7.6498C17.4186 8.0578 17.1536 8.4508 16.7476 8.5298C16.6986 8.5388 16.6506 8.5438 16.6026 8.5438C16.2506 8.5438 15.9376 8.2958 15.8676 7.9378C15.5796 6.4578 14.4386 5.3168 12.9606 5.0298C12.5536 4.9508 12.2886 4.5578 12.3676 4.1508C12.4466 3.7438 12.8466 3.4778 13.2466 3.5578ZM13.1867 0.005996C17.2647 0.458996 20.4317 3.622 20.8887 7.699C20.9347 8.111 20.6387 8.482 20.2277 8.528C20.1997 8.531 20.1707 8.533 20.1427 8.533C19.7657 8.533 19.4417 8.25 19.3987 7.867C19.0197 4.491 16.3977 1.871 13.0207 1.496C12.6097 1.45 12.3127 1.08 12.3587 0.667996C12.4037 0.256996 12.7707 -0.046004 13.1867 0.005996Z" fill="#848484"/>
</svg>
