<svg width="16" height="20" viewBox="0 0 16 20" fill="none" xmlns="http://www.w3.org/2000/svg">
<path fill-rule="evenodd" clip-rule="evenodd" d="M15.8399 16.1932C15.8399 19.4892 11.3199 19.8702 7.92089 19.8702L7.67766 19.8699C5.5121 19.8647 -0.000106812 19.728 -0.000106812 16.1732C-0.000106812 12.9444 4.33825 12.5129 7.71138 12.4967L8.16412 12.4964C10.3295 12.5016 15.8399 12.6383 15.8399 16.1932ZM7.92089 13.9962C3.65989 13.9962 1.49989 14.7282 1.49989 16.1732C1.49989 17.6312 3.65989 18.3702 7.92089 18.3702C12.1809 18.3702 14.3399 17.6382 14.3399 16.1932C14.3399 14.7352 12.1809 13.9962 7.92089 13.9962ZM7.92089 -0.000244141C10.8489 -0.000244141 13.2299 2.38176 13.2299 5.30976C13.2299 8.23776 10.8489 10.6188 7.92089 10.6188H7.88889C4.96689 10.6098 2.59989 8.22676 2.60986 5.30676C2.60986 2.38176 4.99189 -0.000244141 7.92089 -0.000244141ZM7.92089 1.42776C5.77989 1.42776 4.03787 3.16876 4.03787 5.30976C4.03089 7.44376 5.75989 9.18376 7.89189 9.19176L7.92089 9.90576V9.19176C10.0609 9.19176 11.8019 7.44976 11.8019 5.30976C11.8019 3.16876 10.0609 1.42776 7.92089 1.42776Z" fill="#848484"/>
</svg>
