<svg width="46" height="46" viewBox="0 0 46 46" fill="none" xmlns="http://www.w3.org/2000/svg">
<path d="M23 0C16.9229 0.0737368 11.1155 2.52062 6.81807 6.81807C2.52062 11.1155 0.0737368 16.9229 0 23C0.0737368 29.0771 2.52062 34.8845 6.81807 39.1819C11.1155 43.4794 16.9229 45.9263 23 46C29.0771 45.9263 34.8845 43.4794 39.1819 39.1819C43.4794 34.8845 45.9263 29.0771 46 23C45.9263 16.9229 43.4794 11.1155 39.1819 6.81807C34.8845 2.52062 29.0771 0.0737368 23 0ZM36.1429 24.6429H24.6429V36.1429H21.3571V24.6429H9.85714V21.3571H21.3571V9.85714H24.6429V21.3571H36.1429V24.6429Z" fill="black"/>
</svg>
